<?xml version="1.0" standalone="no"?>
<!DOCTYPE svg PUBLIC "-//W3C//DTD SVG 20010904//EN"
 "http://www.w3.org/TR/2001/REC-SVG-20010904/DTD/svg10.dtd">
<svg version="1.0" xmlns="http://www.w3.org/2000/svg"
 width="680.000000pt" height="680.000000pt" viewBox="0 0 680.000000 680.000000"
 preserveAspectRatio="xMidYMid meet">
<metadata>
Created by potrace 1.14, written by Peter Selinger 2001-2017
</metadata>
<g transform="translate(0.000000,680.000000) scale(0.100000,-0.100000)"
fill="#000000" stroke="none">
<path d="M3317 5684 c-11 -12 24 -65 56 -84 18 -11 46 -20 62 -20 34 0 75 -24
75 -44 0 -7 16 -31 36 -54 l36 -42 -21 -70 c-12 -38 -27 -72 -34 -77 -6 -4
-32 -10 -57 -13 -39 -4 -45 -8 -48 -31 -3 -28 35 -68 98 -102 26 -14 31 -21
25 -40 -4 -12 -9 -34 -12 -49 -5 -25 -10 -28 -47 -29 -22 0 -57 -2 -76 -3 -19
-2 -99 -6 -178 -10 -78 -4 -159 -9 -180 -11 -20 -3 -58 -7 -84 -9 -51 -5 -104
-28 -111 -48 -13 -36 34 -63 125 -72 43 -5 128 -48 128 -65 0 -4 -13 -15 -30
-24 -31 -19 -48 -43 -44 -64 1 -7 2 -17 3 -22 0 -5 13 -24 28 -41 l27 -32 -60
6 c-83 8 -186 6 -354 -9 -30 -2 -125 -7 -210 -11 -114 -4 -158 -10 -166 -20
-12 -14 -70 -19 -99 -8 -13 5 -10 12 17 35 28 23 31 30 22 46 -10 16 -25 18
-118 17 -59 0 -101 3 -94 8 7 4 21 8 30 8 9 0 29 5 45 11 20 7 24 12 14 18 -8
5 -10 14 -6 21 5 8 3 11 -6 8 -8 -3 -13 -11 -12 -17 2 -6 -12 -11 -35 -12 -47
-1 -122 -8 -144 -13 -14 -3 -15 -1 -6 14 9 14 9 22 0 33 -16 18 -49 11 -62
-13 -8 -15 -5 -20 18 -28 23 -7 16 -10 -48 -16 -41 -4 -88 -9 -105 -11 -16 -2
-55 -7 -86 -10 -31 -3 -71 -10 -88 -15 -17 -5 -34 -9 -36 -9 -3 0 -30 -8 -61
-17 -59 -17 -78 -39 -50 -59 13 -10 14 -18 6 -39 -8 -22 -5 -31 21 -61 l30
-34 -28 -7 c-15 -4 -33 -11 -39 -16 -7 -5 -38 -11 -70 -14 -33 -2 -69 -7 -82
-9 -50 -11 -71 -15 -162 -30 -130 -22 -131 -22 -165 -30 -58 -15 -78 -55 -27
-55 36 0 53 -12 42 -29 -5 -9 -2 -23 7 -38 14 -21 14 -25 -2 -43 -10 -11 -15
-26 -12 -35 4 -8 3 -15 -1 -16 -65 -4 -130 -13 -173 -23 -44 -9 -55 -16 -57
-34 -2 -12 -16 -29 -32 -37 -16 -8 -36 -25 -44 -37 -18 -25 -21 -79 -6 -94 6
-6 -1 -25 -20 -54 -37 -56 -37 -66 -1 -88 l30 -18 -65 -47 c-35 -25 -64 -51
-64 -56 0 -20 45 -51 74 -52 17 -1 77 -1 134 -1 57 -1 99 -4 95 -8 -4 -4 -53
-19 -108 -33 -140 -36 -180 -52 -183 -70 -2 -10 7 -17 29 -22 l33 -7 -35 -19
c-18 -10 -57 -25 -86 -34 -63 -19 -76 -44 -42 -81 19 -20 23 -36 23 -94 1 -79
-9 -95 -46 -81 -18 7 -29 6 -37 -2 -17 -17 -13 -34 15 -62 l26 -26 -22 -19
c-17 -15 -21 -26 -17 -49 7 -35 -9 -59 -45 -64 -28 -3 -78 -39 -78 -56 0 -4 9
-20 21 -34 15 -20 18 -31 10 -45 -7 -14 -6 -24 4 -38 13 -18 14 -18 44 -1 34
20 33 20 46 -37 9 -44 43 -86 81 -102 18 -7 35 -23 39 -34 12 -37 57 -50 192
-55 373 -12 491 -17 523 -25 33 -8 32 -8 -20 -10 -202 -8 -608 9 -645 27 -5 2
-2 -2 9 -11 10 -8 44 -18 75 -21 31 -4 72 -9 91 -11 19 -2 94 -7 165 -10 72
-4 142 -7 158 -9 15 -1 62 -2 105 -3 52 -2 72 -5 62 -12 -12 -8 -12 -10 3 -16
17 -6 24 -44 8 -44 -5 0 -11 -7 -15 -15 -7 -20 20 -45 44 -40 12 2 21 -3 25
-14 3 -10 17 -23 30 -29 14 -6 25 -18 25 -25 0 -8 -26 -41 -59 -75 -75 -78
-117 -148 -101 -168 7 -8 25 -14 41 -14 36 0 42 -11 25 -45 -17 -33 -13 -48
20 -70 21 -13 40 -14 142 -6 64 5 135 6 158 2 59 -11 127 -6 183 15 47 16 51
16 86 0 24 -12 50 -16 71 -13 23 4 34 1 38 -9 3 -8 13 -14 21 -14 9 0 14 4 11
8 -2 4 10 6 29 4 34 -4 57 14 35 28 -24 15 10 22 111 24 96 2 100 1 105 -20 3
-13 21 -32 40 -43 47 -28 56 -57 33 -103 -25 -48 -24 -73 2 -99 44 -44 148 8
136 69 -6 33 10 68 40 88 14 8 36 40 49 69 13 30 31 58 41 63 10 6 21 12 24
14 4 1 16 -5 28 -16 18 -16 20 -29 18 -88 -2 -66 0 -71 27 -95 26 -22 35 -24
75 -18 118 17 121 17 149 -1 20 -13 42 -17 83 -16 70 4 81 -8 85 -88 2 -33 10
-73 18 -89 15 -29 65 -71 83 -71 5 0 20 -23 34 -51 30 -65 60 -87 95 -70 30
13 26 37 -15 90 -99 127 -103 143 -56 212 19 28 36 56 36 63 6 49 5 63 -2 91
-12 43 -57 82 -102 89 -60 9 -77 22 -77 59 0 18 5 39 10 47 8 12 17 8 50 -28
34 -35 47 -42 78 -42 20 0 60 -12 87 -26 71 -36 119 -29 248 38 95 50 102 56
102 83 0 28 -3 30 -44 35 -58 7 -38 25 39 34 104 14 180 68 180 130 0 22 5 36
13 37 29 3 74 -3 104 -12 24 -8 43 -6 75 5 41 14 44 14 62 -7 15 -18 29 -22
85 -22 53 -1 79 -7 131 -32 36 -17 84 -34 106 -37 42 -5 59 -13 168 -80 41
-25 53 -36 39 -36 -26 0 -40 -35 -23 -55 16 -19 54 -19 69 -1 12 14 5 46 -10
46 -5 0 -9 5 -9 10 0 18 60 1 124 -35 56 -31 66 -33 124 -28 42 4 67 1 77 -7
13 -11 20 -9 40 10 13 12 25 34 27 49 2 14 8 26 13 26 29 2 87 29 100 48 26
37 19 83 -15 109 -16 12 -30 25 -30 28 0 4 26 24 58 45 87 57 107 87 108 160
0 34 3 66 7 72 9 14 109 41 182 48 l60 7 17 -36 c22 -45 53 -53 113 -31 44 17
51 29 46 72 -1 7 17 17 39 23 71 19 128 48 141 71 6 12 11 42 11 66 -1 30 3
43 12 43 8 0 19 7 26 15 9 11 16 13 24 5 14 -14 83 -13 92 2 4 7 -2 18 -14 26
-34 23 -28 42 11 35 24 -3 37 0 47 13 8 9 15 20 15 23 0 3 4 5 8 3 4 -1 10 5
13 13 4 8 12 15 20 15 8 0 14 5 14 10 0 6 7 10 15 10 42 0 72 74 40 100 -20
17 -19 25 8 53 47 46 59 72 46 101 -7 14 -20 28 -31 31 -11 4 -18 16 -18 30 0
34 -32 50 -72 36 -37 -13 -135 -15 -142 -3 -3 5 7 8 22 7 15 -1 41 2 57 7 17
5 61 13 98 18 88 13 111 24 97 49 -9 18 -53 28 -160 35 -96 6 -97 6 -75 15 31
13 186 18 248 9 30 -5 43 -2 58 13 36 36 28 85 -21 130 -22 20 -40 44 -40 52
0 8 11 39 25 69 40 86 34 155 -20 236 -1 1 -31 7 -66 13 -35 6 -68 15 -72 19
-10 9 59 30 159 50 153 31 197 113 88 165 l-37 17 32 14 c62 26 51 63 -27 85
-58 17 -47 14 -111 24 -38 6 -61 16 -82 36 -17 17 -41 29 -57 30 -103 4 -164
9 -254 23 -57 9 -132 18 -168 21 -36 3 -74 7 -85 9 -11 3 -28 5 -37 5 -10 1
-18 5 -18 10 0 5 10 7 23 4 16 -3 18 -2 8 5 -7 5 -11 14 -8 19 7 11 62 10 220
-2 67 -5 97 -3 97 4 0 6 -10 11 -22 12 -98 4 -176 9 -193 13 -11 2 -23 5 -28
5 -4 1 -6 6 -5 13 2 7 -13 17 -32 24 -35 12 -37 19 -24 62 5 19 0 25 -40 43
-26 11 -46 27 -46 35 0 43 45 162 72 190 18 19 28 40 26 52 -2 12 8 30 25 46
27 25 34 50 18 74 -9 15 -70 31 -117 32 -17 0 -37 7 -44 15 -7 8 -24 15 -39
15 -14 0 -42 10 -61 21 -49 30 -119 23 -189 -21 -41 -25 -64 -33 -95 -32 -113
5 -143 5 -171 -2 -56 -14 -80 -14 -118 1 -33 13 -44 14 -78 3 -21 -7 -42 -10
-46 -7 -3 4 1 7 9 7 9 0 21 7 28 15 7 8 25 15 41 15 15 0 34 -7 43 -15 19 -19
61 -19 119 1 68 23 49 34 -29 16 -54 -12 -70 -12 -89 -2 -16 9 -44 11 -83 7
-72 -8 -92 -15 -86 -31 3 -8 -8 -12 -33 -13 -21 0 -54 -3 -74 -5 -51 -7 -75 5
-82 41 -4 18 -13 31 -21 31 -27 0 -28 20 -2 51 34 41 32 55 -11 77 -19 11 -26
6 -73 -48 -46 -53 -51 -63 -46 -94 5 -29 2 -38 -16 -51 -47 -32 -108 -10 -108
40 0 26 -28 41 -67 36 -15 -2 -23 3 -23 13 0 9 -9 25 -20 36 -18 18 -30 20
-116 15 -52 -2 -106 0 -121 6 -14 5 -55 11 -90 12 -96 4 -105 23 -60 127 14
32 14 39 0 68 -8 17 -24 34 -35 38 -11 3 -35 30 -53 59 -35 55 -50 65 -91 65
-42 0 -94 28 -112 60 -17 30 -24 35 -35 24z"/>
<path d="M3172 5628 c-15 -15 -3 -38 19 -38 12 0 19 7 19 19 0 22 -23 34 -38
19z"/>
<path d="M3230 5610 c0 -5 5 -10 10 -10 6 0 10 5 10 10 0 6 -4 10 -10 10 -5 0
-10 -4 -10 -10z"/>
<path d="M3611 5558 c-11 -30 5 -50 38 -46 21 2 25 8 23 28 -5 43 -47 55 -61
18z"/>
<path d="M3259 5544 c-15 -5 -31 -28 -43 -66 -8 -27 31 -68 64 -68 55 0 90 70
58 113 -14 17 -53 28 -79 21z"/>
<path d="M4284 5419 c-9 -15 11 -33 30 -26 9 4 13 13 10 22 -7 17 -30 20 -40
4z"/>
<path d="M4242 5338 c-18 -18 -15 -42 7 -62 15 -14 24 -15 40 -6 21 11 25 21
21 50 -4 29 -46 40 -68 18z"/>
<path d="M5623 4960 c-13 -5 -23 -14 -23 -20 0 -16 30 -24 43 -11 6 6 25 11
42 11 21 1 26 3 15 9 -28 16 -55 20 -77 11z"/>
<path d="M5770 4939 c0 -5 19 -9 42 -9 49 0 47 5 -4 13 -21 3 -38 2 -38 -4z"/>
<path d="M5886 4943 c-3 -3 -3 -10 0 -14 7 -12 34 -11 34 0 0 11 -26 22 -34
14z"/>
<path d="M2810 4893 c-42 -15 -54 -78 -20 -108 61 -55 153 33 96 92 -14 15
-56 24 -76 16z"/>
<path d="M5577 4892 c-28 -6 -16 -37 13 -36 45 3 50 4 50 12 0 13 -42 29 -63
24z"/>
<path d="M2190 4870 c0 -5 7 -7 15 -4 8 4 15 8 15 10 0 2 -7 4 -15 4 -8 0 -15
-4 -15 -10z"/>
<path d="M2114 4826 c-18 -14 -18 -15 -1 -22 22 -8 46 11 31 26 -7 7 -17 5
-30 -4z"/>
<path d="M2945 4820 c-4 -6 -3 -16 3 -22 13 -13 23 4 13 21 -7 10 -10 10 -16
1z"/>
<path d="M960 4785 c-17 -21 -1 -38 31 -33 16 2 24 10 24 23 0 25 -37 32 -55
10z"/>
<path d="M2347 4788 c-10 -5 -15 -13 -12 -19 9 -14 42 -11 48 5 7 18 -14 27
-36 14z"/>
<path d="M1743 4762 c-52 -5 -39 -23 15 -20 26 2 47 7 47 12 0 11 -17 13 -62
8z"/>
<path d="M5486 4701 c-3 -5 1 -11 9 -15 15 -6 29 7 18 18 -9 9 -21 8 -27 -3z"/>
<path d="M5964 4699 c-8 -14 11 -33 25 -25 11 7 4 36 -9 36 -5 0 -12 -5 -16
-11z"/>
<path d="M5882 4689 c2 -6 8 -10 13 -10 5 0 11 4 13 10 2 6 -4 11 -13 11 -9 0
-15 -5 -13 -11z"/>
<path d="M5545 4675 c21 -17 37 -15 43 3 2 8 -8 12 -30 12 -31 -1 -32 -1 -13
-15z"/>
<path d="M1031 4491 c-8 -5 -11 -16 -8 -25 3 -8 1 -18 -5 -22 -15 -9 10 -23
32 -17 28 8 34 73 7 73 -7 0 -18 -4 -26 -9z"/>
<path d="M5570 4468 c0 -4 9 -8 20 -8 11 0 20 4 20 9 0 6 -9 9 -20 8 -11 -1
-20 -5 -20 -9z"/>
<path d="M5675 4460 c52 -9 338 -42 365 -43 32 0 40 4 40 18 0 12 -15 15 -72
16 -93 1 -201 5 -303 12 -64 4 -70 3 -30 -3z"/>
<path d="M6394 4448 c-4 -5 -1 -14 7 -18 14 -9 29 -4 29 10 0 13 -29 20 -36 8z"/>
<path d="M1118 4437 c-61 -22 -159 -40 -218 -38 -71 2 -204 -33 -197 -52 5
-17 76 -18 116 -1 20 9 54 18 76 20 51 6 275 53 286 60 5 3 9 9 9 14 0 11 -39
9 -72 -3z"/>
<path d="M6206 4395 c-3 -8 2 -21 10 -30 19 -19 59 -2 50 22 -3 8 -6 17 -6 19
0 12 -49 2 -54 -11z"/>
<path d="M6454 4328 c-4 -5 -1 -14 7 -18 14 -9 29 -4 29 10 0 13 -29 20 -36 8z"/>
<path d="M6545 4130 c-3 -5 1 -10 10 -10 9 0 13 5 10 10 -3 6 -8 10 -10 10 -2
0 -7 -4 -10 -10z"/>
<path d="M6465 4102 c-6 -4 -17 -20 -25 -35 -20 -40 -65 -60 -139 -63 -78 -3
-111 -11 -111 -25 0 -10 124 -11 177 -1 14 3 46 27 72 54 25 27 60 56 76 63
l30 13 -35 1 c-19 0 -40 -3 -45 -7z"/>
<path d="M6490 4066 c0 -10 9 -16 21 -16 24 0 21 23 -4 28 -10 2 -17 -3 -17
-12z"/>
<path d="M512 4007 c-12 -7 -20 -16 -16 -20 4 -3 -1 -9 -10 -13 -21 -8 -21
-30 0 -38 22 -8 49 13 34 28 -16 16 -12 23 13 22 13 -1 22 5 22 13 0 20 -16
23 -43 8z"/>
<path d="M333 3473 c-22 -4 -37 -28 -27 -44 13 -21 94 2 94 28 0 7 -4 13 -9
13 -5 0 -15 2 -23 4 -7 2 -23 1 -35 -1z"/>
<path d="M310 3199 c0 -6 -6 -9 -14 -6 -17 7 -30 -19 -15 -29 5 -3 22 6 36 20
20 20 22 26 9 26 -9 0 -16 -5 -16 -11z"/>
<path d="M192 2656 c-20 -26 -21 -35 -6 -50 20 -20 38 -20 58 0 12 11 13 20 6
33 -12 23 -46 33 -58 17z"/>
<path d="M5308 2512 c-20 -4 -24 -17 -8 -27 13 -8 50 3 50 15 0 11 -21 17 -42
12z"/>
<path d="M5436 2493 c-3 -3 -3 -10 0 -14 7 -12 34 -11 34 0 0 11 -26 22 -34
14z"/>
<path d="M1145 2400 c-8 -13 4 -32 16 -25 12 8 12 35 0 35 -6 0 -13 -4 -16
-10z"/>
<path d="M746 2323 c-9 -23 16 -36 34 -17 13 13 13 16 0 24 -21 14 -27 12 -34
-7z"/>
<path d="M645 2320 c3 -5 15 -10 26 -10 11 0 17 5 14 10 -3 6 -15 10 -26 10
-11 0 -17 -4 -14 -10z"/>
<path d="M290 2307 c0 -19 10 -27 26 -20 21 8 17 33 -6 33 -11 0 -20 -6 -20
-13z"/>
<path d="M5731 2267 c-13 -16 -5 -27 21 -27 11 0 18 7 18 20 0 23 -22 27 -39
7z"/>
<path d="M5160 2250 c-21 -13 -20 -39 3 -51 17 -9 23 -8 34 7 7 10 13 21 13
26 0 14 -36 27 -50 18z"/>
<path d="M5716 2231 c-3 -5 1 -11 9 -15 8 -3 15 -1 15 4 0 13 -18 22 -24 11z"/>
<path d="M932 2173 c2 -10 10 -18 18 -18 22 0 18 29 -3 33 -14 3 -18 -1 -15
-15z"/>
<path d="M4205 2159 c-8 -12 -5 -16 15 -21 15 -3 20 2 20 22 0 13 -27 13 -35
-1z"/>
<path d="M5200 2160 c0 -5 5 -10 10 -10 6 0 10 5 10 10 0 6 -4 10 -10 10 -5 0
-10 -4 -10 -10z"/>
<path d="M3817 2146 c-11 -28 4 -47 32 -44 20 2 26 8 26 28 0 20 -6 26 -26 28
-17 2 -29 -3 -32 -12z"/>
<path d="M4129 2149 c-11 -6 -11 -11 -2 -20 12 -12 43 -6 43 10 0 14 -25 20
-41 10z"/>
<path d="M5172 2118 c7 -19 38 -22 38 -4 0 10 -9 16 -21 16 -12 0 -19 -5 -17
-12z"/>
<path d="M3751 2083 c-42 -29 -9 -99 40 -86 30 8 44 41 29 68 -16 30 -43 37
-69 18z"/>
</g>
</svg>
